<?xml version="1.0" encoding="UTF-8" standalone="no"?>
<!-- Created with Inkscape (http://www.inkscape.org/) -->

<svg
   xmlns:dc="http://purl.org/dc/elements/1.1/"
   xmlns:cc="http://creativecommons.org/ns#"
   xmlns:rdf="http://www.w3.org/1999/02/22-rdf-syntax-ns#"
   xmlns:svg="http://www.w3.org/2000/svg"
   xmlns="http://www.w3.org/2000/svg"
   xmlns:sodipodi="http://sodipodi.sourceforge.net/DTD/sodipodi-0.dtd"
   xmlns:inkscape="http://www.inkscape.org/namespaces/inkscape"
   width="180pt"
   height="180pt"
   viewBox="0 0 225.00001 225"
   id="svg2"
   version="1.1"
   inkscape:version="0.92.5 (2060ec1f9f, 2020-04-08)"
   sodipodi:docname="blackgecko.svg">
  <defs
     id="defs4" />
  <sodipodi:namedview
     id="base"
     pagecolor="#ffffff"
     bordercolor="#666666"
     borderopacity="1.0"
     inkscape:pageopacity="0.0"
     inkscape:pageshadow="2"
     inkscape:zoom="0.98994949"
     inkscape:cx="20.86802"
     inkscape:cy="-57.760576"
     inkscape:document-units="px"
     inkscape:current-layer="layer1"
     showgrid="false"
     inkscape:window-width="1848"
     inkscape:window-height="1016"
     inkscape:window-x="72"
     inkscape:window-y="1107"
     inkscape:window-maximized="1"
     units="pt" />
  <metadata
     id="metadata7">
    <rdf:RDF>
      <cc:Work
         rdf:about="">
        <dc:format>image/svg+xml</dc:format>
        <dc:type
           rdf:resource="http://purl.org/dc/dcmitype/StillImage" />
        <dc:title />
      </cc:Work>
    </rdf:RDF>
  </metadata>
  <g
     inkscape:label="Capa 1"
     inkscape:groupmode="layer"
     id="layer1"
     transform="translate(0,-827.36218)">
    <circle
       style="opacity:1;fill:#ff0000;fill-opacity:1;fill-rule:nonzero;stroke:#ff0000;stroke-width:0.07086614;stroke-linecap:round;stroke-miterlimit:4;stroke-dasharray:none;stroke-opacity:1"
       id="path4136"
       cx="113.38962"
       cy="940.99292"
       r="112.88454" />
    <path
       style="fill:#000000;stroke-width:0.86713111"
       d="m 29.136939,942.65152 c 3.628596,1.96805 4.476436,2.39459 7.10981,3.22965 4.94328,1.55022 9.178776,0.76287 9.821303,0.31896 0.642528,-0.4439 0.824695,-0.35135 1.141818,-1.0348 0.317231,-0.6834 -0.281765,-1.26221 -1.54385,-1.09958 -1.262082,0.16263 -1.596505,0.14107 -3.310913,0.16165 -3.545634,-0.66034 -7.333939,-2.39041 -11.022257,-4.45576 -1.901602,-0.97187 -4.051065,-3.90491 -4.838131,-6.79497 -0.787056,-2.89004 -0.289727,-2.26513 -0.426346,-5.05768 -0.13661,-2.79254 2.332865,-7.62847 3.688595,-9.43372 1.355729,-1.80526 1.601645,-2.41235 3.20979,-3.8184 1.608128,-1.40605 3.777097,-3.55071 8.243589,-6.51848 4.466492,-2.96777 10.597867,-5.80539 15.984751,-7.2801 5.386894,-1.47472 8.511352,-1.42778 14.795456,0.24241 6.284106,1.6702 8.205165,3.20071 11.775647,6.27959 3.256185,3.25153 4.08153,3.40174 9.184382,9.47275 -0.04454,0.17722 -0.233391,0.28362 -0.419258,0.23691 -0.351661,-0.0883 -1.145432,0.31583 -1.64858,1.3073 -0.842937,1.31821 -0.758853,1.31486 -1.339215,2.56549 -0.454797,1.11854 -1.092498,2.24341 -1.613253,3.06153 -0.559057,1.04292 -0.653912,1.45956 -1.237202,2.3871 -0.583283,0.92755 -1.755502,2.90034 -2.60661,4.383 -1.766605,3.07749 -3.08637,4.589 -3.838508,4.40001 -0.275432,-0.0692 -1.836214,-0.65581 -3.468974,-1.30299 -3.211381,-1.27291 -5.924889,-1.86085 -8.691117,-1.8835 -2.9178,-0.024 -4.146548,-0.18756 -5.671493,-2.31569 -0.750513,-1.0474 -1.718049,-2.60625 -1.886373,-3.29946 -0.670483,-2.76111 -3.125239,-3.3831 -4.708183,-2.71625 -1.717173,0.72337 -1.341012,3.99764 1.764093,5.58601 2.116183,1.0825 4.188145,4.91795 3.998961,5.67085 -0.346565,1.37923 -3.906649,4.05878 -7.331209,4.04626 -4.056686,-0.0149 -5.462089,1.43694 -5.253679,3.45068 0,0 0.01287,0.42085 1.307413,1.06545 1.559822,0.77669 2.181609,1.16904 4.597924,-0.90351 2.868555,-1.5604 0.191695,-0.35 3.38557,-1.77044 0.888008,-0.33918 1.985084,-0.0365 2.081879,0.57551 0.149316,0.94406 -1.151865,6.45989 -1.869021,7.92466 -0.545611,1.11431 -0.97719,1.78882 -0.951269,2.6947 -0.0059,1.34429 1.296837,2.27468 1.773265,2.3944 0.422858,0.10625 1.983986,-0.2105 2.492175,-1.09909 0.405341,-0.70875 0.277603,-1.70428 0.376553,-4.35486 0.113712,-3.04623 0.309199,-4.00682 0.792909,-3.88528 0.292252,0.0735 1.641278,3.11243 1.617198,5.11429 -0.04475,3.72011 1.792356,4.07086 3.161693,3.72818 1.796421,-0.44957 2.560221,-1.96145 -0.252386,-5.34063 -1.467593,-1.76322 -1.66916,-3.7045 -1.180184,-4.40027 0.299967,-0.42685 1.433105,-0.33458 2.703577,1.76377 1.343069,2.21823 2.706482,1.90578 3.836691,1.22949 1.000992,-1.38927 1.250359,-2.77248 -1.510101,-3.6502 -1.193941,-0.45644 -1.855434,-1.18807 -2.282453,-1.8413 -0.344732,-0.52737 -0.572624,-0.99016 -0.508118,-1.02876 0.169901,-0.10165 4.69224,0.83547 10.095266,2.09138 5.55287,1.29075 6.549775,1.30989 8.142355,0.16174 1.616062,-1.16508 3.931468,-2.85563 5.423934,-3.96145 2.043687,-1.51427 4.395895,-3.80769 6.695033,-6.52515 1.169954,-1.38284 2.294454,-2.53422 2.499274,-2.55893 0.95588,-0.11549 1.8219,1.45408 3.1146,5.64596 5.48408,13.56597 16.67304,19.64271 29.14797,27.18962 0.49823,0.33025 1.27593,0.98606 1.72716,1.45903 0.45122,0.473 0.27256,0.38282 1.32184,1.19736 2.5935,2.01329 2.67687,3.51392 0.75018,3.62456 -3.42274,0.19654 -7.69427,0.94393 -9.35664,3.34174 -2.10073,3.03013 -3.53138,1.56294 -3.94378,3.6431 l 0.30969,3.94302 2.63818,7.58515 c 1.72464,2.81453 3.48041,5.50741 3.90245,5.98537 0.42205,0.47796 0.79076,1.06796 0.81995,1.30971 0.0894,0.74045 -1.69226,1.91107 -3.80057,1.54558 -4.13619,-0.71686 -4.45468,0.48126 -4.69211,2.32481 0.33103,3.0763 2.07871,2.6747 4.68947,1.19971 1.66657,-0.70954 4.26682,-0.85555 4.74145,-0.20723 0.36308,0.49602 -0.41885,4.12252 -1.33054,5.19082 -2.27202,1.7879 -2.11861,3.3283 -0.98451,4.0573 1.57015,1.0165 3.65758,0.6085 3.38117,-2.5522 0.31673,-3.4939 2.20682,-5.518 2.8543,-5.0629 2.85014,1.501 3.06642,4.1342 3.21505,5.1351 -0.0865,3.1126 2.3077,3.6028 3.61673,3.2535 1.1408,-0.3278 2.33517,-2.698 0.99824,-3.808 l -2.49643,-2.4005 c -2.03825,-1.96 -1.83488,-3.0561 -1.64088,-3.53289 0.20965,-0.51513 0.39154,-0.56222 1.44757,-0.368 0.66415,0.12223 4.22864,1.41299 4.82407,1.79749 2.45979,2.6742 4.63148,1.9547 5.1848,-0.2784 0.52658,-1.59498 -0.91006,-3.31212 -3.86571,-3.05708 -1.58677,0.13691 -6.43753,-1.77998 -6.35899,-2.09258 0.15366,-0.61141 1.27373,-1.5036 2.98828,-2.37837 3.63361,-0.25251 3.11554,-2.57911 2.34666,-3.49202 -0.76884,-0.91309 -2.79185,-1.50257 -3.90416,1.00336 -0.53923,0.54612 -1.41014,1.12709 -1.93418,1.28994 -0.52406,0.16293 -1.18626,0.23751 -1.47197,0.16623 -0.46735,-0.11741 -1.99916,-2.60972 -2.88859,-4.70384 -0.16394,-0.38596 -0.653,-1.32385 -1.08808,-2.08424 -0.65969,-1.44862 -1.45859,-2.8513 -1.97042,-4.15329 -0.2113,-0.35752 -0.49935,-0.99634 -0.2908,-0.99712 9.10958,-0.0364 14.02202,-4.55365 14.25642,-4.4058 0.41352,0.26074 1.58625,2.26989 2.09452,3.83245 0.26586,0.81736 0.31522,2.00603 0.55363,2.50836 0.49897,1.0513 1.96442,3.11152 2.7132,3.13303 0.51163,0.0148 2.77472,2.50991 4.18882,3.77349 1.19405,1.44161 2.01287,2.9499 3.39653,3.62426 0.52364,0.28633 1.29759,0.96018 1.89928,1.1408 0.60168,0.18071 1.09712,0.66284 1.23367,0.84025 0.13655,0.1775 0.35923,0.83878 0.72341,1.32073 1.02797,1.36018 1.98332,2.57405 4.12445,2.63536 1.10564,0.0325 2.1163,0.63365 2.69043,0.89957 2.52761,1.17111 7.35544,4.66951 9.63356,5.27121 5.35394,1.4141 8.87738,2.0063 10.3556,-1.347 0.84905,-1.9261 1.95473,-7.47016 0.73965,-10.3564 -0.2559,-0.60786 -0.26967,-1.238 -0.26691,-1.33417 0.003,-0.0961 -0.1253,-1.72134 -0.88396,-3.40817 l -0.91477,-3.23475 0.43527,-2.9622 c -0.003,-1.88619 0.46074,-3.41086 0.22199,-4.10439 -0.46906,-1.36244 -1.50227,-3.34037 -2.8259,-3.73777 -0.78258,-0.235 -0.89653,-0.759 -1.35426,-1.64264 -0.65674,-1.26783 -3.34512,-6.74084 -5.10534,-8.37278 -0.63599,-0.58963 -1.06996,-1.51868 -1.27087,-1.81184 -0.55172,-0.80504 -1.80001,-2.82089 -2.43506,-3.1592 -1.19579,-0.63702 -4.69073,-3.04621 -5.02847,-3.05589 -0.19557,-0.006 -0.87368,-0.58309 -1.66107,-0.97124 -1.16017,-0.57187 -1.63992,-1.17585 -3.11793,-1.17509 -1.92894,8.7e-4 -1.46786,-0.36256 -2.25513,-1.93721 -0.23372,-0.46731 -0.84312,-1.25904 -1.35299,-1.75968 -1.18501,-1.16357 -1.44072,-1.9337 -1.27533,-3.84093 0.0736,-0.84765 0.023,-2.78542 -0.11232,-4.30657 -0.27839,-3.12738 -0.94822,-4.50318 -0.89568,-4.95226 0.0515,-0.44052 0.43856,-1.46674 0.49937,-1.58825 0.0608,-0.12152 0.46811,-0.14267 1.16502,-0.53547 0.69691,-0.39278 1.70883,-1.03102 2.24832,-1.41657 1.39961,-1.00019 1.76702,1.41013 1.09556,2.73107 -1.37107,2.69727 -0.84646,3.62309 0.8646,3.79665 0.79942,0.0811 2.2756,0.0241 2.04989,-3.95121 -0.13989,-2.46395 0.94119,-2.53727 1.44892,-3.18001 l 0.92205,-1.16922 0.68073,0.78181 c 0.37408,0.42977 0.90345,1.35751 1.04169,2.09297 0.56868,3.02541 1.30563,2.99289 2.13658,3.4096 0.75352,0.37795 1.98348,-0.0165 2.35346,-0.7561 0.43924,-0.87793 1.52032,-1.90344 -1.45478,-4.04944 -1.28943,-0.93009 -2.19918,-3.18232 -1.97825,-3.62392 0.25792,-0.51549 3.26444,0.17697 5.22628,1.11087 2.80919,2.0979 4.54518,0.28535 4.27734,-2.10692 -0.3224,-1.18325 -0.45699,-1.6732 -3.86149,-1.19225 -2.04052,0.28826 -4.6161,-1.0857 -5.04511,-1.79855 -0.3838,-0.63781 0.59311,-1.8663 3.00519,-2.23666 5.28589,-0.81161 4.41995,-1.73459 4.49295,-3.24972 -0.67538,-3.32749 -3.75269,-2.60124 -5.70335,0.29025 -1.34608,1.23382 -3.61914,2.20596 -4.3275,1.85158 -0.51372,-0.25701 -0.8099,-1.55413 0.23859,-3.18712 1.99029,-3.09984 1.59447,-4.17122 -0.58889,-4.84149 -3.20708,-0.98453 -3.42462,1.76632 -2.85182,3.95527 0.24341,0.93017 -0.23538,2.56349 -0.53102,3.55968 -0.51535,1.73637 -0.57782,1.83625 -1.52373,2.43623 -0.54269,0.34421 -1.81,0.94127 -2.81485,1.32631 -1.00483,0.38504 -2.41401,0.97279 -3.1322,1.30577 -0.71815,0.333 -1.47576,0.66698 -1.68389,0.74262 -0.20811,0.0757 -1.21324,0.63141 -2.23314,1.23481 l -1.85362,1.09704 -1.21621,2.45751 c -1.05032,2.12233 -0.30316,4.37239 -0.074,5.95401 0.2492,1.72006 -0.45421,2.22787 -0.75088,2.15332 -1.19731,-0.80738 -1.77334,-1.29986 -3.16613,-1.82612 -0.46864,-0.12222 -0.7621,-0.53068 -1.15315,-1.60294 -3.35932,-6.83965 -9.31087,-13.36533 -17.65136,-17.06082 -0.45447,-0.11419 -1.08283,-0.38677 -1.3967,-0.6059 -0.31386,-0.21914 -1.96352,-0.82128 -3.66486,-1.33649 -1.70133,-0.51521 -3.4005,-1.10748 -3.7762,-1.31732 l -0.68305,-0.3812 1.12781,-0.22128 c 2.02564,-0.39543 7.15622,-1.9448 9.13086,-2.75759 2.19899,-0.90514 3.02006,-1.73387 4.02399,-3.22706 2.98071,-4.43327 1.40465,-7.02234 -1.6061,-10.41995 -0.8797,-0.99274 -2.18159,-3.11669 -3.56015,-3.88164 -2.35712,-1.63286 -3.70803,-3.10478 -4.38112,-5.18085 -0.0414,-0.2224 0.97046,-0.26689 1.80113,-1.16867 1.00214,-1.08833 2.1252,-0.94365 3.43529,-0.82241 3.00773,0.27835 3.59276,-1.12679 3.61497,-2.18101 0.0397,-1.87888 -2.02242,-2.92034 -4.15104,-1.17502 -0.61285,0.50252 -1.7608,0.40032 -2.23115,0.36266 l -0.85519,-0.0683 0.24383,-0.70066 c 0.47256,-1.35885 1.83394,-1.99562 2.76255,-3.52211 2.84768,-2.47501 3.22548,-3.76176 0.93842,-4.90232 -1.03559,-0.4987 -3.22782,-0.56648 -3.63947,2.87227 -0.35412,2.27794 -2.17733,3.10453 -2.55833,2.84321 -0.5095,-0.34938 0.56069,-3.04453 1.52539,-4.98008 1.5054,-3.0204 1.53449,-3.41753 0.0586,-4.63647 -3.44181,-0.8829 -3.41941,2.16847 -3.45055,3.88036 0.25647,1.95015 -1.18686,3.43705 -1.17334,4.64469 0.0467,4.09536 -1.30583,2.63289 -5.52678,-0.98733 -2.6198,-2.24693 -4.10195,-4.52603 -6.28854,-2.01359 -1.69537,2.06749 0.18971,4.29997 3.4969,4.08677 7.09072,2.94001 4.82779,5.40779 3.8347,6.70436 -0.37414,0.48846 -5.35048,1.75731 -6.54577,2.31513 -4.16589,0.15117 -5.24345,0.86257 -4.75045,4.45316 1.90706,2.87071 4.28287,0.92516 4.92946,-0.64783 1.32983,-1.40037 3.52683,-1.58611 4.91989,-1.91244 2.34977,-0.709 0.37341,-0.0231 3.96406,2.17896 4.22189,2.58922 2.07823,4.4016 3.79293,6.30189 l 1.8493,2.04885 0.566,-0.36005 c -1.04361,0.59113 -2.65874,1.86411 -3.56114,1.55868 -4.8348,-1.63635 -7.54672,-1.77014 -7.9893,-1.65938 -0.26999,0.0675 -0.81068,0.0424 -1.20182,-0.0541 -1.48794,-0.36762 -5.53702,0.25302 -7.20116,1.10331 -1.20088,0.61357 -1.39812,1.15796 -2.73789,0.59424 -2.76532,-0.77478 -4.15162,-2.17653 -8.617709,-5.91036 -7.554914,-5.59019 -11.954974,-7.56959 -17.089457,-9.77718 -5.846665,-2.05258 -10.700422,-2.64331 -18.283305,-1.55692 -7.582901,1.08642 -12.423091,3.17515 -15.566792,4.97853 -5.903891,2.92288 -10.238154,7.25711 -13.766451,10.28689 -2.657222,2.27216 -7.911062,9.95215 -9.484196,12.66991 -1.573136,2.71776 -2.017121,4.01351 -2.294567,5.71385 -0.277449,1.70032 -1.027513,4.4301 -0.102028,7.54333 1.574011,7.1523 4.489577,10.7041 9.169316,13.27347 z"
       id="path4161"
       inkscape:connector-curvature="0"
       sodipodi:nodetypes="cczzzcczzzzzzzccccccssssssssssscsccsccssssssscsccscsssscccsssscccscsccscccccccsccccsscscccsccscsssccccssssssscccsssssssscccssssssssscccscsssccsssccsssssscscccssccccsscccsssccsssscccccccsccssccsccccscccsccsccczcczzccc" />
  </g>
</svg>
