<?xml version="1.0" encoding="UTF-8" standalone="no"?>
<!-- Created with Inkscape (http://www.inkscape.org/) -->

<svg
   xmlns:dc="http://purl.org/dc/elements/1.1/"
   xmlns:cc="http://creativecommons.org/ns#"
   xmlns:rdf="http://www.w3.org/1999/02/22-rdf-syntax-ns#"
   xmlns:svg="http://www.w3.org/2000/svg"
   xmlns="http://www.w3.org/2000/svg"
   xmlns:sodipodi="http://sodipodi.sourceforge.net/DTD/sodipodi-0.dtd"
   xmlns:inkscape="http://www.inkscape.org/namespaces/inkscape"
   width="180pt"
   height="180pt"
   viewBox="0 0 225.00001 225"
   id="svg2"
   version="1.1"
   inkscape:version="0.91 r13725"
   sodipodi:docname="BlackGecko.svg">
  <defs
     id="defs4" />
  <sodipodi:namedview
     id="base"
     pagecolor="#ffffff"
     bordercolor="#666666"
     borderopacity="1.0"
     inkscape:pageopacity="0.0"
     inkscape:pageshadow="2"
     inkscape:zoom="0.98994949"
     inkscape:cx="167.2493"
     inkscape:cy="-9.9632674"
     inkscape:document-units="px"
     inkscape:current-layer="layer1"
     showgrid="false"
     inkscape:window-width="1215"
     inkscape:window-height="1000"
     inkscape:window-x="65"
     inkscape:window-y="24"
     inkscape:window-maximized="1"
     units="pt" />
  <metadata
     id="metadata7">
    <rdf:RDF>
      <cc:Work
         rdf:about="">
        <dc:format>image/svg+xml</dc:format>
        <dc:type
           rdf:resource="http://purl.org/dc/dcmitype/StillImage" />
        <dc:title></dc:title>
      </cc:Work>
    </rdf:RDF>
  </metadata>
  <g
     inkscape:label="Capa 1"
     inkscape:groupmode="layer"
     id="layer1"
     transform="translate(0,-827.36218)">
    <circle
       style="opacity:1;fill:#ff0000;fill-opacity:1;fill-rule:nonzero;stroke:#ff0000;stroke-width:0.07086614;stroke-linecap:round;stroke-miterlimit:4;stroke-dasharray:none;stroke-opacity:1"
       id="path4136"
       cx="113.38962"
       cy="940.99292"
       r="112.88454" />
    <path
       style="fill:#000000"
       d="m 17.35237,935.26665 c 4.184599,2.26962 5.162352,2.76151 8.199234,3.72453 5.700729,1.78776 10.585222,0.87976 11.326203,0.36783 0.74098,-0.51192 0.951061,-0.40518 1.316776,-1.19336 0.36584,-0.78811 -0.324939,-1.45561 -1.780411,-1.26806 -1.455469,0.18754 -1.841134,0.16268 -3.818238,0.18641 -4.088925,-0.76152 -8.457705,-2.75668 -12.711177,-5.1385 -2.192982,-1.12079 -4.671803,-4.50326 -5.579469,-7.83615 -0.907656,-3.33288 -0.334122,-2.61221 -0.491674,-5.83266 -0.157543,-3.22044 2.690325,-8.79737 4.253791,-10.87924 1.563465,-2.08187 1.847062,-2.78199 3.70162,-4.40348 1.854539,-1.6215 4.355855,-4.09478 9.506739,-7.5173 5.150884,-3.42251 12.221759,-6.69494 18.434065,-8.39561 6.212318,-1.70069 9.81553,-1.64656 17.062536,0.27955 7.247008,1.92612 9.462427,3.69115 13.580009,7.2418 3.755123,3.74976 4.706934,3.92299 10.591688,10.92424 -0.05136,0.20438 -0.269153,0.32708 -0.4835,0.27322 -0.405546,-0.10189 -1.320945,0.36422 -1.90119,1.50761 -0.972099,1.5202 -0.875131,1.51633 -1.54442,2.9586 -0.524485,1.28993 -1.259899,2.58716 -1.860449,3.53064 -0.64472,1.20272 -0.754109,1.6832 -1.426777,2.75287 -0.672657,1.06968 -2.024494,3.34475 -3.006015,5.0546 -2.037298,3.54905 -3.559289,5.29216 -4.426675,5.07421 -0.317636,-0.0798 -2.117574,-0.7563 -4.00052,-1.50264 -3.703455,-1.46796 -6.832749,-2.14598 -10.02284,-2.17211 -3.364889,-0.0276 -4.781916,-0.2163 -6.540526,-2.67051 -0.865513,-1.2079 -1.981303,-3.00561 -2.175418,-3.80503 -0.77322,-3.18419 -3.604114,-3.90149 -5.42961,-3.13246 -1.980291,0.83421 -1.546492,4.61019 2.034403,6.44194 2.440441,1.24837 4.829887,5.67152 4.611714,6.53979 -0.399668,1.59056 -4.505258,4.6807 -8.454556,4.66626 -4.678286,-0.0171 -6.299035,1.65712 -6.058691,3.97942 0,0 0.01485,0.48533 1.507745,1.2287 1.798831,0.89571 2.515893,1.34818 5.302456,-1.04195 3.308099,-1.7995 0.221067,-0.40363 3.904334,-2.04172 1.024076,-0.39115 2.289256,-0.0421 2.400881,0.6637 0.172196,1.08871 -1.328363,7.44972 -2.155407,9.13894 -0.629213,1.28505 -1.126922,2.06291 -1.09703,3.1076 -0.0068,1.55027 1.495549,2.62323 2.04498,2.76129 0.48765,0.12253 2.287988,-0.24275 2.874045,-1.2675 0.467451,-0.81735 0.320141,-1.96542 0.434253,-5.02215 0.131134,-3.513 0.356575,-4.62078 0.914404,-4.48061 0.337033,0.0847 1.892769,3.58934 1.864999,5.89794 -0.05161,4.29014 2.066994,4.69463 3.646153,4.29944 2.071683,-0.51845 2.952519,-2.262 -0.291058,-6.15896 -1.692471,-2.0334 -1.924924,-4.27213 -1.361022,-5.07452 0.34593,-0.49225 1.652697,-0.38584 3.117841,2.03403 1.548865,2.55813 3.121191,2.1978 4.424579,1.41789 1.154373,-1.60215 1.441951,-3.19731 -1.741491,-4.20952 -1.376885,-0.52638 -2.139738,-1.37011 -2.632189,-2.12344 -0.397554,-0.60818 -0.660366,-1.14188 -0.585976,-1.18639 0.195935,-0.11723 5.411224,0.96348 11.642146,2.41184 6.403726,1.48852 7.553385,1.5106 9.389993,0.18652 1.863688,-1.34361 4.53388,-3.29319 6.255034,-4.56846 2.356837,-1.7463 5.069469,-4.39113 7.720903,-7.52499 1.349227,-1.59472 2.646025,-2.92253 2.882225,-2.95103 1.10236,-0.13318 2.10108,1.67689 3.59185,6.51108 6.32439,15.64467 19.22782,22.65253 33.61426,31.35584 0.57457,0.38085 1.47144,1.13715 1.9918,1.6826 0.52036,0.54547 0.31434,0.44147 1.5244,1.38082 2.9909,2.32179 3.08703,4.05236 0.86512,4.17995 -3.9472,0.22666 -8.87325,1.08857 -10.79034,3.85379 -2.42261,3.49443 -4.07248,1.80243 -4.54808,4.20133 l 0.35715,4.5472 3.04242,8.7474 c 1.9889,3.2458 4.01371,6.3513 4.50041,6.9025 0.48673,0.5512 0.91194,1.2316 0.94559,1.5104 0.10317,0.8539 -1.95156,2.2039 -4.38292,1.7824 -4.76996,-0.8267 -5.13727,0.555 -5.41108,2.68103 0.38176,3.54765 2.39723,3.08455 5.40803,1.38355 1.92195,-0.8183 4.92062,-0.9867 5.46797,-0.239 0.41872,0.572 -0.48303,4.7541 -1.5344,5.9862 -2.62016,2.0619 -2.44325,3.8383 -1.13537,4.6789 1.81073,1.1723 4.21802,0.7017 3.89926,-2.9432 0.36526,-4.0293 2.54497,-6.3635 3.29165,-5.8387 3.28687,1.731 3.53628,4.7678 3.70769,5.9219 -0.0997,3.5896 2.66131,4.1548 4.17092,3.7521 1.31561,-0.378 2.69298,-3.1114 1.15119,-4.3915 l -2.87895,-2.7683 c -2.35057,-2.2603 -2.11604,-3.5244 -1.8923,-4.0742 0.24177,-0.5941 0.45152,-0.6484 1.66937,-0.4244 0.76593,0.1409 4.87658,1.6294 5.56325,2.0729 2.83671,3.084 5.34116,2.2543 5.97926,-0.321 0.60728,-1.8394 -1.0495,-3.81968 -4.45805,-3.52555 -1.82989,0.1579 -7.42393,-2.05273 -7.33335,-2.41323 0.1772,-0.7051 1.46889,-1.734 3.44616,-2.7428 4.19039,-0.2912 3.59293,-2.9743 2.70624,-4.0271 -0.88666,-1.053 -3.21965,-1.7328 -4.5024,1.1571 -0.62185,0.6298 -1.6262,1.2998 -2.23054,1.4876 -0.60436,0.1879 -1.36803,0.2739 -1.69751,0.1917 -0.53897,-0.1354 -2.3055,-3.0096 -3.33121,-5.4246 -0.18906,-0.4451 -0.75306,-1.5267 -1.2548,-2.4036 -0.76079,-1.6706 -1.68209,-3.2882 -2.27236,-4.7897 -0.24366,-0.4123 -0.57585,-1.149 -0.33536,-1.1499 10.50544,-0.042 16.1706,-5.2514 16.44092,-5.0809 0.47688,0.3007 1.82931,2.6177 2.41546,4.4197 0.3066,0.9426 0.36352,2.3134 0.63845,2.8927 0.57543,1.2124 2.26543,3.5883 3.12894,3.6131 0.59003,0.017 3.1999,2.8945 4.83066,4.3517 1.37703,1.6625 2.32131,3.4019 3.91699,4.1796 0.60388,0.3302 1.49641,1.1073 2.1903,1.3156 0.69388,0.2084 1.26522,0.7644 1.4227,0.969 0.15748,0.2047 0.41428,0.9673 0.83426,1.5231 1.18549,1.5686 2.28722,2.96848 4.75643,3.03918 1.27506,0.037 2.44058,0.7307 3.10267,1.0374 2.91491,1.3505 8.48252,5.385 11.1097,6.0788 6.17432,1.6309 10.23764,2.3138 11.94238,-1.5534 0.97914,-2.2211 2.25424,-8.61468 0.85297,-11.94318 -0.2951,-0.701 -0.31099,-1.4277 -0.30781,-1.5386 0.003,-0.1108 -0.1445,-1.9851 -1.0194,-3.9304 l -1.05493,-3.7304 0.50195,-3.4161 c -0.003,-2.1752 0.53134,-3.9335 0.25601,-4.7333 -0.54093,-1.5712 -1.73245,-3.8522 -3.2589,-4.3105 -0.9025,-0.271 -1.03391,-0.8753 -1.56178,-1.89433 -0.75736,-1.4621 -3.85768,-7.77373 -5.88762,-9.65573 -0.73343,-0.67998 -1.2339,-1.75138 -1.46559,-2.08946 -0.63627,-0.9284 -2.07583,-3.25314 -2.80818,-3.64328 -1.37903,-0.73463 -5.40949,-3.51298 -5.79899,-3.52414 -0.22553,-0.006 -1.00754,-0.67244 -1.91559,-1.12006 -1.33793,-0.6595 -1.8912,-1.35603 -3.59569,-1.35515 -2.2245,0.001 -1.69276,-0.41812 -2.60067,-2.23405 -0.26954,-0.53891 -0.9723,-1.45196 -1.56031,-2.02931 -1.36659,-1.34186 -1.66148,-2.23 -1.47075,-4.42947 0.0848,-0.97753 0.0266,-3.21222 -0.12952,-4.96645 -0.32105,-3.60659 -1.09352,-5.1932 -1.03292,-5.71109 0.0594,-0.50802 0.50576,-1.69148 0.57588,-1.83161 0.0702,-0.14015 0.53984,-0.16454 1.34353,-0.61752 0.80369,-0.45297 1.97067,-1.18901 2.59284,-1.63363 1.61406,-1.15345 2.03776,1.6262 1.26342,3.14954 -1.58115,3.11057 -0.97616,4.17825 0.99708,4.37841 0.92192,0.0935 2.62428,0.0279 2.36399,-4.55665 -0.16133,-2.84149 1.08541,-2.92605 1.67094,-3.66727 l 1.06333,-1.34838 0.78503,0.9016 c 0.4314,0.49563 1.04189,1.56552 1.20131,2.41367 0.65582,3.48899 1.50569,3.45149 2.46398,3.93205 0.86897,0.43586 2.2874,-0.0191 2.71406,-0.87195 0.50654,-1.01246 1.75328,-2.1951 -1.67768,-4.66993 -1.48701,-1.07261 -2.53616,-3.66994 -2.28137,-4.17921 0.29742,-0.59448 3.76464,0.20409 6.02708,1.28109 3.23965,2.41935 5.24164,0.32907 4.93276,-2.42976 -0.3718,-1.36456 -0.52703,-1.92958 -4.45319,-1.37494 -2.35318,0.33243 -5.32342,-1.25206 -5.81815,-2.07414 -0.44262,-0.73554 0.68399,-2.15227 3.46566,-2.57938 6.09584,-0.93597 5.09722,-2.00037 5.1814,-3.74767 -0.77888,-3.83735 -4.32771,-2.99982 -6.57727,0.33473 -1.55234,1.42288 -4.1737,2.54398 -4.9906,2.13529 -0.59242,-0.29639 -0.934,-1.79226 0.27515,-3.67547 2.29527,-3.57482 1.83879,-4.81037 -0.67911,-5.58334 -3.6985,-1.13539 -3.94938,2.03697 -3.2888,4.56132 0.28071,1.0727 -0.27146,2.95629 -0.6124,4.10513 -0.59431,2.00243 -0.66636,2.11761 -1.75721,2.80952 -0.62583,0.39696 -2.08734,1.08551 -3.24615,1.52954 -1.15881,0.44404 -2.78391,1.12185 -3.61214,1.50586 -0.82821,0.38402 -1.7019,0.76917 -1.94191,0.85641 -0.24001,0.0873 -1.39916,0.72816 -2.57532,1.42401 l -2.13766,1.26514 -1.40257,2.83407 c -1.21126,2.44753 -0.3496,5.04236 -0.0854,6.86633 0.28738,1.98362 -0.52381,2.56924 -0.86594,2.48327 -1.38077,-0.93109 -2.04506,-1.49904 -3.65127,-2.10593 -0.54044,-0.14095 -0.87886,-0.612 -1.32984,-1.84856 -3.87407,-7.88768 -10.73756,-15.41327 -20.35605,-19.67501 -0.5241,-0.13169 -1.24875,-0.44604 -1.6107,-0.69875 -0.36196,-0.25271 -2.2644,-0.94712 -4.22643,-1.54128 -1.96202,-0.59415 -3.92155,-1.27717 -4.35482,-1.51917 l -0.78771,-0.4396 1.30062,-0.25519 c 2.33602,-0.45602 8.25276,-2.2428 10.52996,-3.18013 2.53595,-1.04383 3.48282,-1.99955 4.64059,-3.72154 3.43743,-5.11257 1.61987,-8.09836 -1.8522,-12.01658 -1.0145,-1.14486 -2.51587,-3.59425 -4.10567,-4.47642 -2.7183,-1.88306 -4.27621,-3.58052 -5.05243,-5.9747 -0.0478,-0.25648 1.11917,-0.30778 2.07712,-1.34774 1.15568,-1.25509 2.45084,-1.08824 3.96167,-0.94843 3.46859,0.321 4.14326,-1.29944 4.16889,-2.5152 0.0457,-2.16678 -2.33232,-3.36782 -4.7871,-1.35506 -0.70677,0.57951 -2.0306,0.46166 -2.57303,0.41823 l -0.98623,-0.0787 0.28119,-0.80802 c 0.54498,-1.56707 2.11496,-2.30141 3.18585,-4.0618 3.28402,-2.85426 3.71972,-4.33817 1.08222,-5.65349 -1.19427,-0.57512 -3.72242,-0.65328 -4.19715,3.31238 -0.40838,2.62699 -2.51095,3.58023 -2.95033,3.27887 -0.58757,-0.40291 0.64661,-3.51104 1.75913,-5.74317 1.73606,-3.48321 1.76961,-3.94119 0.0676,-5.34691 -3.9692,-1.01818 -3.94337,2.50075 -3.97927,4.47494 0.29576,2.24897 -1.36873,3.96371 -1.35314,5.35639 0.0539,4.72288 -1.50591,3.03633 -6.37364,-1.13861 -3.02122,-2.59123 -4.73049,-5.21955 -7.25212,-2.32213 -1.95515,2.38428 0.21879,4.95884 4.03272,4.71297 8.17722,3.39051 5.56755,6.23642 4.42228,7.73166 -0.43146,0.5633 -6.17032,2.02657 -7.54875,2.66987 -4.80423,0.17433 -6.0469,0.99474 -5.47836,5.13551 2.19927,3.31058 4.93912,1.06693 5.68479,-0.7471 1.53359,-1.61494 4.06725,-1.82914 5.67375,-2.20548 2.70983,-0.81764 0.43063,-0.0267 4.57148,2.51284 4.86879,2.98596 2.39667,5.07606 4.37411,7.26752 l 2.13266,2.3628 0.65272,-0.41523 c -1.20351,0.68171 -3.06612,2.14975 -4.1068,1.79752 -5.57562,-1.88709 -8.70308,-2.04138 -9.21348,-1.91364 -0.31137,0.0779 -0.9349,0.049 -1.38598,-0.0623 -1.71594,-0.42396 -6.38544,0.29178 -8.30458,1.27235 -1.38488,0.70759 -1.61235,1.3354 -3.15741,0.6853 -3.18904,-0.8935 -4.78776,-2.51003 -9.938185,-6.816 -8.71254,-6.44675 -13.786813,-8.72945 -19.708043,-11.2753 -6.742539,-2.3671 -12.340028,-3.04835 -21.084822,-1.7955 -8.744815,1.2529 -14.326658,3.66168 -17.952063,5.74139 -6.808533,3.37074 -11.806928,8.36911 -15.875859,11.86313 -3.064384,2.62032 -9.12326,11.4771 -10.9374423,14.61129 -1.8141848,3.1342 -2.3262009,4.6285 -2.6461591,6.58938 -0.3199631,1.96085 -1.1849568,5.10891 -0.1176618,8.69918 1.8151929,8.24824 5.1775072,12.34427 10.5743142,15.30733 z"
       id="path4161"
       inkscape:connector-curvature="0"
       sodipodi:nodetypes="cczzzcczzzzzzzccccccssssssssssscsccsccssssssscsccscsssscccsssscccscsccscccccccsccccsscscccsccscsssccccssssssscccsssssssscccssssssssscccscsssccsssccsssssscscccssccccsscccsssccsssscccccccsccssccsccccscccsccsccczcczzccc" />
  </g>
</svg>
